<svg id="Calque_1" data-name="Calque 1" xmlns="http://www.w3.org/2000/svg" xmlns:xlink="http://www.w3.org/1999/xlink" viewBox="0 0 740.04 486.35"><defs><style>.cls-1{fill:url(#Dégradé_sans_nom_71);}.cls-2{fill:url(#Dégradé_sans_nom_67);}.cls-3{fill:url(#Dégradé_sans_nom_74);}.cls-4{fill:url(#Dégradé_sans_nom_68);}.cls-5{fill:url(#Dégradé_sans_nom_26);}.cls-6{fill:url(#Dégradé_sans_nom_43);}.cls-7{fill:url(#Dégradé_sans_nom_65);}.cls-8{fill:#1d1d1b;}</style><linearGradient id="Dégradé_sans_nom_71" x1="419.09" y1="77.3" x2="427.41" y2="282.99" gradientUnits="userSpaceOnUse"><stop offset="0" stop-color="#e2dd1b"/><stop offset="0.47" stop-color="#329a37"/><stop offset="1" stop-color="#0e4423"/></linearGradient><linearGradient id="Dégradé_sans_nom_67" x1="443.48" y1="231.87" x2="318.42" y2="231.08" gradientUnits="userSpaceOnUse"><stop offset="0" stop-color="#d5d716"/><stop offset="0.16" stop-color="#acc81e"/><stop offset="0.35" stop-color="#80b727"/><stop offset="0.53" stop-color="#5eab2e"/><stop offset="0.71" stop-color="#46a133"/><stop offset="0.87" stop-color="#379c36"/><stop offset="1" stop-color="#329a37"/></linearGradient><linearGradient id="Dégradé_sans_nom_74" x1="449.77" y1="35.53" x2="346.9" y2="40.26" gradientUnits="userSpaceOnUse"><stop offset="0" stop-color="#e2dd1b"/><stop offset="0.06" stop-color="#d3d71d"/><stop offset="0.18" stop-color="#aac824"/><stop offset="0.33" stop-color="#6aaf2e"/><stop offset="0.46" stop-color="#329a37"/><stop offset="0.53" stop-color="#298432"/><stop offset="0.65" stop-color="#1d682b"/><stop offset="0.77" stop-color="#155427"/><stop offset="0.88" stop-color="#104824"/><stop offset="1" stop-color="#0e4423"/></linearGradient><linearGradient id="Dégradé_sans_nom_68" x1="377.11" y1="207.41" x2="405.02" y2="160.51" gradientUnits="userSpaceOnUse"><stop offset="0" stop-color="#178bc6"/><stop offset="0.21" stop-color="#1688c2"/><stop offset="0.41" stop-color="#157fb6"/><stop offset="0.61" stop-color="#126fa3"/><stop offset="0.81" stop-color="#0f5987"/><stop offset="1" stop-color="#0a3f66"/></linearGradient><linearGradient id="Dégradé_sans_nom_26" x1="286.48" y1="122.17" x2="318.71" y2="255.25" gradientUnits="userSpaceOnUse"><stop offset="0" stop-color="#e2dd1b"/><stop offset="0.17" stop-color="#e0dc1a"/><stop offset="0.23" stop-color="#d9d919"/><stop offset="0.27" stop-color="#ced515"/><stop offset="0.31" stop-color="#bdce10"/><stop offset="0.32" stop-color="#b8cc0f"/><stop offset="0.37" stop-color="#abc713"/><stop offset="0.48" stop-color="#87ba1e"/><stop offset="0.62" stop-color="#4ea42f"/><stop offset="0.68" stop-color="#329a37"/><stop offset="1" stop-color="#0f4323"/></linearGradient><linearGradient id="Dégradé_sans_nom_43" x1="400.74" y1="356.27" x2="234.58" y2="189.52" gradientUnits="userSpaceOnUse"><stop offset="0" stop-color="#6bc7ec"/><stop offset="0.13" stop-color="#5cbce5"/><stop offset="0.38" stop-color="#349fd3"/><stop offset="0.53" stop-color="#178bc6"/><stop offset="0.73" stop-color="#126da1"/><stop offset="1" stop-color="#0a3f66"/></linearGradient><radialGradient id="Dégradé_sans_nom_65" cx="271.13" cy="95.49" r="23.69" gradientUnits="userSpaceOnUse"><stop offset="0" stop-color="#fff"/><stop offset="0.19" stop-color="#bcd7ec"/><stop offset="0.47" stop-color="#5a9dd0"/><stop offset="0.54" stop-color="#2e91c9"/><stop offset="0.59" stop-color="#178bc6"/><stop offset="0.75" stop-color="#126fa3"/><stop offset="1" stop-color="#0a3f66"/></radialGradient></defs><path class="cls-1" d="M378.1,275.61l-.28,0a89.58,89.58,0,0,0,122.24-82,91.12,91.12,0,0,0-37.34-74.19c-16.51-11.84-36.53-17.74-54-28.17S375.57,63.05,377.19,42.8c1.37-17.22,15.94-31.74,32.75-35.72A49.23,49.23,0,0,1,446,12.56C432.58.42,412.44-2.71,395.05,2.27c-23.71,6.79-44.41,26.92-50.41,51-5.63,22.56-.13,48.19,15.94,65.32.64.69,1.29,1.36,2,2C383.6,141,416.32,146.3,436.4,167.72c18.29,19.52,22,51.08,9.07,74.52S404.49,279.32,378.1,275.61Z"/><path class="cls-2" d="M449,188.27c.47,9.53.6,18.3-2.81,27.22-4.69,12.26-15.24,22-27.64,26.3a52.94,52.94,0,0,1-38.42-2c-14.87-6.61-26.18-19.25-35.67-32.47-1.93-2.69-3.89-5.5-6.71-7.23-2.64-1.61-8.24-5.41-10.44-2.5-2.74,3.61-2.07,13.21-1.57,17.37,2.22,18.37,11.05,36.2,25.53,47.72a62.51,62.51,0,0,0,78.88-.77,64.73,64.73,0,0,0,22.39-59.47,83.58,83.58,0,0,0-4-15.36S449,188.23,449,188.27Z"/><path class="cls-1" d="M462.72,119.4c-16.51-11.84-36.53-17.74-54-28.17S375.57,63.05,377.19,42.8c1.37-17.22,15.94-31.74,32.75-35.72A49.23,49.23,0,0,1,446,12.56C432.58.42,412.44-2.71,395.05,2.27c-23.71,6.79-44.41,26.92-50.41,51-5.63,22.56-.13,48.19,15.94,65.32.64.69,1.29,1.36,2,2C383.6,141,416.32,146.3,436.4,167.72a60.72,60.72,0,0,1,12.18,19.55l0-.07a.44.44,0,0,1,0-.08l0,.08c.09.26.41,1,.41,1.07v0a66.93,66.93,0,0,1,3.45,13.63l.09.56c0,.12,0,.24,0,.36.08.65.15,1.31.22,2a63.78,63.78,0,0,1-1.33,22.8A65.37,65.37,0,0,1,430.11,262a63.37,63.37,0,0,1-43.64,14.25,61.87,61.87,0,0,1-8.37-.59l-.28,0a89.58,89.58,0,0,0,122.24-82A91.12,91.12,0,0,0,462.72,119.4Z"/><path class="cls-3" d="M446,12.56a49.23,49.23,0,0,0-36.05-5.48c-15.72,3.73-29.49,16.68-32.32,32.43a42,42,0,0,0,.61,15.27c.06.24.12.49.19.74l.1.37c.15.52.3,1,.46,1.54v0q.27.81.57,1.62a1.46,1.46,0,0,0,.07.19,48.73,48.73,0,0,0,5.44,10.34c.53-2.61,1.27-9.67,4-17,4.24-11.21,14.78-16.83,17.48-18.27,12.73-6.78,27.37-5.55,37.74-.79,11.44,5.25,11,6.65,17.47,12.31-.11-9.24-.69-19.91-13.1-31.38a42.31,42.31,0,0,0-6-4.58C443.83,10.73,444.94,11.61,446,12.56Z"/><path class="cls-4" d="M436.4,167.72c-12.43-13.26-29.7-20.33-46.06-28.65a30.31,30.31,0,0,0-6.1-.46c-6.51.18-12.67,2.7-18.17,6a63.87,63.87,0,0,0-14.57,12.23,33.94,33.94,0,0,0-2.6,3.26,97.24,97.24,0,0,1,22.87,34.94c.94,2.43,1.8,4.9,2.54,7.4h0a55.88,55.88,0,0,1,4-7.54c3.33-4.41,9.73-11.29,18.06-14.39a61.26,61.26,0,0,1,49.35,2.9,8.85,8.85,0,0,0,1.58.7A60,60,0,0,0,436.4,167.72Z"/><path class="cls-5" d="M339.11,247c2.06,2.6,6.06,2.41,9.38,1.92,8.73-1.27,18.29-3.18,23.72-10.12,3.12-4,4.4-9.13,4.8-14.18.8-10.05-1.59-20.12-5.24-29.52-7.52-19.39-20.9-36.94-39.11-47-22.85-12.61-54.09-11.67-73.66,6.76a60.84,60.84,0,0,0-17.05,30c-4,16.71-1.61,34.49,4.15,50.68,3.85,10.82,9.26,21.21,16.91,29.77-6.13-11.63-12.35-23.5-14.69-36.43s-.25-27.37,8.61-37.09c8.12-8.91,20.81-12.61,32.87-12.18a44.92,44.92,0,0,1,21.6,6c10.18,6.15,16.66,16.91,21.35,27.84,3.47,8.07,6.22,16.77,5.41,25.52-.25,2.72-.76,5.74.86,7.93Z"/><path class="cls-6" d="M400.26,306.48c-15.06-17.38-36.73-27.4-58-36.25S299.06,252.88,282,237.49c-5.92-5.33-11.25-11.58-14-19-3.63-9.78-1.17-25.23,1.52-35.31a35.11,35.11,0,0,0-12.53,8.65c-8.86,9.72-11,24.15-8.61,37.09s8.56,24.8,14.69,36.43c-.93-1.05-1.84-2.12-2.71-3.23a81.58,81.58,0,0,0,7.38,9.95c15.05,17.38,36.37,27.73,56.25,39.26,13.15,7.62,26,16,37.29,26.1,6.07,5.42,11.88,11.63,14.32,19.39.51,1.6,1.07,3.49,2.65,4,1.89.67,3.71-1.05,5-2.6q10.8-13.32,20.37-27.58a22.64,22.64,0,0,0,3.16-6,11.32,11.32,0,0,0,.35-1.59C407.94,317.13,404.29,311.14,400.26,306.48Z"/><circle class="cls-7" cx="270.74" cy="105.03" r="20.66"/><path class="cls-8" d="M17.79,391.92a2.48,2.48,0,0,0,1.88-.82,3,3,0,0,0,0-4,2.36,2.36,0,0,0-1.81-.79,2.62,2.62,0,0,0-1.93.84,2.73,2.73,0,0,0-.82,1.95,2.83,2.83,0,0,0,.79,2A2.5,2.5,0,0,0,17.79,391.92Z"/><path class="cls-8" d="M11.39,391.92a2.48,2.48,0,0,0,1.88-.82,3,3,0,0,0,0-4,2.36,2.36,0,0,0-1.81-.79,2.59,2.59,0,0,0-1.92.84,2.69,2.69,0,0,0-.82,1.95,2.82,2.82,0,0,0,.78,2A2.5,2.5,0,0,0,11.39,391.92Z"/><path class="cls-8" d="M98.43,414.7q2.8-8.71-2.65-12.92-2.44-1.62-7.4-1.68H67.17l-2,4.61h20.5a37.87,37.87,0,0,1,5.55.22,4.47,4.47,0,0,1,2.69,1.7,5,5,0,0,1,1,3.78,4.8,4.8,0,0,1-1.31,3.32c-.73.65-2.12,1-4.15,1H28.34V397.57H24.09v3.13q-8-6-16.48-2.25-9,5.58-7.37,14.71,1.17,4.17,6.76,6.15l23.42,0H91.76Q96.79,418,98.43,414.7ZM24,413.86c0,.54-.27.83-.67.88H8A3.72,3.72,0,0,1,4.46,412Q3.35,402.29,13.57,401,25.6,401.64,24,413.86Z"/><path class="cls-8" d="M170.39,414.7q2.81-8.71-2.65-12.92-2.44-1.62-7.4-1.68H137.12v4.61h20.5a37.87,37.87,0,0,1,5.55.22,4.47,4.47,0,0,1,2.69,1.7,5,5,0,0,1,1,3.78,4.8,4.8,0,0,1-1.31,3.32c-.73.65-2.12,1-4.15,1H136.62V397.3l-4.22,1.62V414.7H98.76q-.49,2.3-5.36,4.58h70.32Q168.75,418,170.39,414.7Z"/><path class="cls-8" d="M178.09,414.7h-7.2c-.34,1.53-2.12,3.06-5.36,4.58h16.78V385.9h-4.22Z"/><rect class="cls-8" x="186.53" y="385.9" width="4.22" height="33.38"/><path class="cls-8" d="M231.26,403.46q-9.21,1.69-9.72,11.21-7.8-.14-10.25,7Q209.93,432.85,224,432.1l2.74-4q-9.54.33-10.85-3-1-6.74,7-5.85a2.31,2.31,0,0,0,2.51-1.85l.81-4.85q1.37-3.74,3.71-4.31a8.37,8.37,0,0,1,5.6,1,5.69,5.69,0,0,1,1.47,5.15q0,3.13-2.94,2.76l-6.37-3.66-.47,4.34,7.74,5,1.27-.47q6.7-4.9,5.1-11.67Q239,403.2,231.26,403.46Z"/><path class="cls-8" d="M359,414.7h-8.38a14.57,14.57,0,0,0,.81-4.78q-.21-15.6-20.2-14.63h-8.88l-2,4.57h3q-5.13,7.11-2.72,14.84h-7.23V385.9h-4.23v28.8H273.5q1.54-19.95-16.61-18.3-13.27,3.9-9.72,18.54a8.47,8.47,0,0,0,4.59,4.34h16.91a10.4,10.4,0,0,1-3.61,5.05h-13.3l2.48,4.57h9.85q6.75-.81,8.74-9.62h90.39V385.9H359Zm-106.1,0a4.83,4.83,0,0,1-2.51-5q.23-7.44,6.6-9.26,13.59-1.54,12.53,13.83l0,.47Zm92.26,0h-19.4a10,10,0,0,1-1.5-5.55q1.07-8.41,10.88-9.29a14.63,14.63,0,0,1,9.59,3.06Q349.46,409.08,345.16,414.7Z"/><path class="cls-8" d="M408.58,423.39a2.62,2.62,0,0,0-1.93.84,2.73,2.73,0,0,0-.82,1.95,2.78,2.78,0,0,0,.79,2,2.48,2.48,0,0,0,1.86.83,2.45,2.45,0,0,0,1.87-.83,3,3,0,0,0,0-4A2.37,2.37,0,0,0,408.58,423.39Z"/><path class="cls-8" d="M402.18,423.39a2.62,2.62,0,0,0-1.93.84,2.73,2.73,0,0,0-.82,1.95,2.82,2.82,0,0,0,.79,2,2.52,2.52,0,0,0,3.74,0,2.85,2.85,0,0,0,.77-2,2.81,2.81,0,0,0-.74-2A2.36,2.36,0,0,0,402.18,423.39Z"/><path class="cls-8" d="M471.16,414.7H436.32v.07h-1.21L432.53,409c-.78-.86-2.22-1.3-4.32-1.35H402.92l3.28,4.58h14.74c1.14.76,1.13,1.58,0,2.45H394.34c-3.21.21-5.26-.59-6.13-2.39s-.75-4.09.37-6.89q3.94-6,10.12-6.1L397.42,395q-13.73,3.19-14.3,15.92a9.18,9.18,0,0,0,2,5.42,11.09,11.09,0,0,0,6,3h29.31q7.57-1,5.29-7h3l3.52,7.1H437v-.07h38.43V385.9h-4.22Z"/><path class="cls-8" d="M529.11,414.7h-8.37a14.27,14.27,0,0,0,.8-4.78q-.19-15.6-20.2-14.63h-8.87l-2,4.57h2.94q-5.11,7.11-2.71,14.84h-7.64V385.9h-4.22v33.38h54.51V385.9h-4.23Zm-13.83,0h-19.4a10,10,0,0,1-1.51-5.55q1.08-8.41,10.89-9.29a14.6,14.6,0,0,1,9.58,3.06Q519.57,409.08,515.28,414.7Z"/><rect class="cls-8" x="537.56" y="385.9" width="4.22" height="33.38"/><path class="cls-8" d="M727.37,414.7h-8a10.4,10.4,0,0,0-.21-3.9q-2.28-7.57-10-7.3-9.21,1.68-9.71,11.2h-8.75a14.31,14.31,0,0,0,.81-4.78q-.21-15.6-20.2-14.63h-8.88l-2,4.57h2.95q-5.13,7.11-2.72,14.84h-1.24l-3.61,0q2.77-16.21-12-17.84l0-3.16-4.25,1.72,0,1.44q-14.91,1.83-12.06,17.84h-4v0h-32a10.91,10.91,0,0,0,1.26-4.34q-.46-14-15-15-12.53,1.62-14.54,13.87h4.56q2-7.2,8.81-9.05,13.75-.51,11,12.68a3.65,3.65,0,0,1-2.74,1.85H562.72l2.24,4.58h17.59a27.5,27.5,0,0,0,2.88,0h39.4v0h32.43v0h41.17q4.38,0,4.86-1.85l.8-4.85q1.38-3.74,3.72-4.3a8.22,8.22,0,0,1,5.59,1,5.65,5.65,0,0,1,1.48,5.15q0,3.12-3,2.76l-6.37-3.67-.46,4.34,7.73,5.05,1.28-.47a16.22,16.22,0,0,0,3.33-3.2h14.15V385.9h-4.22Zm-87.77.1q-9.58.68-8.78-5.82.54-8.21,8.78-8.21Zm4.19-.13v-14q8.24,0,8.78,8.21Q653.37,415.35,643.79,414.67Zm41.47,0H665.87a9.93,9.93,0,0,1-1.51-5.55q1.07-8.41,10.89-9.29a14.62,14.62,0,0,1,9.58,3.06Q689.56,409.08,685.26,414.7Z"/><rect class="cls-8" x="735.82" y="385.9" width="4.22" height="33.38"/><path class="cls-8" d="M5.35,486.35H.21V452H5.35Z"/><path class="cls-8" d="M27,486.35h-4.5l-8.24-21.64a12.91,12.91,0,0,1,.33,2.48v19.16h-5V452h4.5l8.24,21.21a13.09,13.09,0,0,1-.33-2.49V452h5Z"/><path class="cls-8" d="M47.6,483.21q0,3.14-3.12,3.14H34.13c-2.06,0-3.1-1.05-3.1-3.14V475h5.15v7h6.28v-6.74l-10.3-9.76A3.64,3.64,0,0,1,31,462.77v-7.64c0-2.11,1-3.17,3.1-3.17H44.48q3.12,0,3.12,3.12v7.69H42.46v-6.48H36.18v6.22l10.3,9.71A3.63,3.63,0,0,1,47.6,475Z"/><path class="cls-8" d="M66.63,456.51H61v29.84H55.84V456.51H50.17V452H66.63Z"/><path class="cls-8" d="M74.47,486.35H69.33V452h5.14Z"/><path class="cls-8" d="M93.63,456.51H88v29.84H82.85V456.51H77.18V452H93.63Z"/><path class="cls-8" d="M113.45,483.21q0,3.14-3.16,3.14H99.37q-3.12,0-3.12-3.14V452h5.14v30h6.92V452h5.14Z"/><path class="cls-8" d="M132.53,456.51h-5.67v29.84h-5.12V456.51h-5.67V452h16.46Z"/><path class="cls-8" d="M160.89,483.21q0,3.14-3.12,3.14H147.42q-3.09,0-3.09-3.14V475h5.14v7h6.28v-6.74l-10.3-9.76a3.63,3.63,0,0,1-1.12-2.75v-7.64q0-3.17,3.09-3.17h10.35q3.12,0,3.12,3.12v7.69h-5.14v-6.48h-6.28v6.22l10.3,9.71a3.63,3.63,0,0,1,1.12,2.79Z"/><path class="cls-8" d="M182.18,483.21q0,3.14-3.16,3.14H168.1q-3.12,0-3.12-3.14V452h5.14v30H177V452h5.14Z"/><path class="cls-8" d="M202.93,470.68q0,3.21-3.15,3.21h-8.32v12.46h-5.14V452h13.46q3.15,0,3.15,3.17Zm-5.19-1.21V456.38h-6.28v13.09Z"/><path class="cls-8" d="M220.83,486.35H206.57V452H220.7v4.55h-9v10h7.73V471h-7.73V481.8h9.11Zm-1.07-41.68-6.4,5.8h-3.69v-.18l3.78-5.82h6.31Z"/><path class="cls-8" d="M242,486.35h-5.36l-5.67-16v-3.1H236v-10.9h-6.48v30h-5.14V452H238q3.09,0,3.09,3.17v12.5c0,1.45-.49,2.39-1.47,2.81a10.58,10.58,0,0,1-3.34.33Z"/><path class="cls-8" d="M250.32,486.35h-5.14V452h5.14Z"/><path class="cls-8" d="M268.8,486.35H254.54V452h14.13v4.55h-9v10h7.74V471h-7.74V481.8h9.12Z"/><path class="cls-8" d="M289.52,483.21q0,3.14-3.16,3.14H275.44q-3.12,0-3.12-3.14V452h5.14v30h6.92V452h5.14Z"/><path class="cls-8" d="M311.25,486.35h-5.36l-5.67-16v-3.1h5.06v-10.9h-6.49v30h-5.14V452H307.3c2.06,0,3.1,1.06,3.1,3.17v12.5a2.73,2.73,0,0,1-1.48,2.81,10.54,10.54,0,0,1-3.34.33Z"/><path class="cls-8" d="M340.81,479.87a6.31,6.31,0,0,1-1.81,4.76,6.76,6.76,0,0,1-4.85,1.72H323.67V452h10.48a6.69,6.69,0,0,1,4.85,1.75,6.35,6.35,0,0,1,1.81,4.78Zm-5.17-.86V459.26c0-1.92-1-2.88-3-2.88h-3.82v25.55h3.69Q335.64,481.93,335.64,479Z"/><path class="cls-8" d="M359,486.35H344.78V452h14.13v4.55h-9v10h7.74V471h-7.74V481.8H359Z"/><path class="cls-8" d="M379,483.21q0,3.14-3.12,3.14H365.57q-3.1,0-3.1-3.14V475h5.14v7h6.29v-6.74l-10.31-9.76a3.63,3.63,0,0,1-1.12-2.75v-7.64q0-3.17,3.1-3.17h10.35q3.12,0,3.12,3.12v7.69H373.9v-6.48h-6.29v6.22l10.31,9.71A3.67,3.67,0,0,1,379,475Z"/><path class="cls-8" d="M408.88,483.21q0,3.14-3.12,3.14H395.41q-3.11,0-3.1-3.14V475h5.14v7h6.29v-6.74l-10.31-9.76a3.63,3.63,0,0,1-1.12-2.75v-7.64q0-3.17,3.1-3.17h10.35q3.12,0,3.12,3.12v7.69h-5.14v-6.48h-6.29v6.22l10.31,9.71a3.67,3.67,0,0,1,1.12,2.79Z"/><path class="cls-8" d="M429.88,483.21c0,2.09-1,3.14-3.14,3.14H416q-3.06,0-3.06-3.14V455.13Q413,452,416,452h10.72c2.1,0,3.14,1.06,3.14,3.17v8h-5.12v-6.79h-6.65v25.55h6.65V474.7h5.12Z"/><path class="cls-8" d="M439.16,486.35H434V452h5.15Z"/><path class="cls-8" d="M457.63,486.35H443.37V452H457.5v4.55h-9v10h7.73V471h-7.73V481.8h9.11Z"/><path class="cls-8" d="M478.57,486.35h-4.5l-8.24-21.64a12.91,12.91,0,0,1,.33,2.48v19.16h-5V452h4.5l8.24,21.21a13.09,13.09,0,0,1-.33-2.49V452h5Z"/><path class="cls-8" d="M499.62,483.21c0,2.09-1,3.14-3.14,3.14H485.76q-3.06,0-3.06-3.14V455.13q0-3.17,3.06-3.17h10.72c2.1,0,3.14,1.06,3.14,3.17v8H494.5v-6.79h-6.65v25.55h6.65V474.7h5.12Z"/><path class="cls-8" d="M517.93,486.35H503.67V452H517.8v4.55h-9v10h7.73V471h-7.73V481.8h9.12Z"/><path class="cls-8" d="M537.92,483.21q0,3.14-3.12,3.14H524.45q-3.09,0-3.09-3.14V475h5.14v7h6.28v-6.74l-10.3-9.76a3.63,3.63,0,0,1-1.12-2.75v-7.64q0-3.17,3.09-3.17H534.8q3.12,0,3.12,3.12v7.69h-5.14v-6.48H526.5v6.22l10.3,9.71a3.63,3.63,0,0,1,1.12,2.79Z"/><path class="cls-8" d="M568.42,479.87a6.3,6.3,0,0,1-1.8,4.76,6.77,6.77,0,0,1-4.86,1.72H551.28V452h10.48a6.7,6.7,0,0,1,4.86,1.75,6.35,6.35,0,0,1,1.8,4.78Zm-5.16-.86V459.26c0-1.92-1-2.88-3-2.88h-3.83v25.55h3.69Q563.26,481.93,563.26,479Z"/><path class="cls-8" d="M586.66,486.35H572.4V452h14.13v4.55h-9v10h7.73V471h-7.73V481.8h9.12Z"/><path class="cls-8" d="M613,486.35H599.45V452h5.14v29.8H613Z"/><path class="cls-8" d="M633.44,486.35h-5.1l-1-6.53h-6.44l-1,6.53h-5.08v-.09l6.66-34.34h5.4Zm-6.86-10.94-2.5-15.52-2.53,15.52Z"/><path class="cls-8" d="M662.07,483.21q0,3.14-3.12,3.14H648.6q-3.11,0-3.1-3.14V475h5.14v7h6.29v-6.74l-10.31-9.76a3.63,3.63,0,0,1-1.12-2.75v-7.64q0-3.17,3.1-3.17H659q3.12,0,3.12,3.12v7.69h-5.14v-6.48h-6.29v6.22L661,472.22a3.63,3.63,0,0,1,1.12,2.79Z"/><path class="cls-8" d="M683.58,486.35h-5.1l-1-6.53H671l-1,6.53H664.9v-.09l6.66-34.34H677Zm-6.86-10.94-2.5-15.52-2.53,15.52Z"/><path class="cls-8" d="M703.88,486.35h-4.5l-8.24-21.64a12.91,12.91,0,0,1,.33,2.48v19.16h-5V452H691l8.24,21.21a13.09,13.09,0,0,1-.33-2.49V452h5Z"/><path class="cls-8" d="M723,456.51h-5.66v29.84h-5.12V456.51H706.5V452H723Z"/><path class="cls-8" d="M739.83,486.35H725.57V452H739.7v4.55h-9v10h7.74V471h-7.74V481.8h9.12Zm-1.08-41.68-6.39,5.8h-3.69v-.18l3.78-5.82h6.3Z"/></svg>